<?xml version="1.0" encoding="UTF-8" standalone="no"?>
<!DOCTYPE svg PUBLIC "-//W3C//DTD SVG 1.1//EN" "http://www.w3.org/Graphics/SVG/1.1/DTD/svg11.dtd">
<!-- Created with Vectornator (http://vectornator.io/) -->
<svg height="100%" stroke-miterlimit="10" style="fill-rule:nonzero;clip-rule:evenodd;stroke-linecap:round;stroke-linejoin:round;" version="1.1" viewBox="0 0 498.536 352.151" width="100%" xml:space="preserve" xmlns="http://www.w3.org/2000/svg" xmlns:xlink="http://www.w3.org/1999/xlink">
<defs>
<clipPath id="TextBounds">
<rect height="49.4654" width="199.888" x="143.453" y="142.922"/>
</clipPath>
</defs>
<g id="Layer-1">
<g opacity="1">
<path d="M92.9797 170.047C92.9797 87.2774 160.141 20.1793 242.988 20.1793C325.835 20.1793 392.996 87.2774 392.996 170.047C392.996 252.817 325.835 319.915 242.988 319.915C160.141 319.915 92.9797 252.817 92.9797 170.047Z" fill="#e99822" fill-rule="nonzero" opacity="1" stroke="#282c34" stroke-linecap="round" stroke-linejoin="round" stroke-width="4"/>
<path d="M93.8664 176.264C93.8664 176.264 128.227 157.586 144.758 154.104C162.841 150.295 216.739 143.139 229.505 137.915C241.022 133.203 268.621 115.436 284.957 110.144C300.661 105.058 312.094 105.349 332.821 105.692C359.465 106.133 362.255 100.933 374.287 98.1849C375.826 97.8333 386.482 120.134 385.299 121.043C374.752 129.15 369.398 128.95 351.243 130.324C334.337 131.603 312.497 132.395 301.911 136.983C291.325 141.571 271.342 161.835 259.838 168.189C247.705 174.891 229.703 172.499 211.119 172.805C182.796 173.273 164.031 178.679 153.426 186.056C153.426 186.056 127.723 190.813 111.787 200.414C96.1645 209.826 95.0765 209.464 95.9848 198.022C96.8932 186.581 93.8664 176.264 93.8664 176.264Z" fill="#efba6c" fill-rule="nonzero" opacity="1" stroke="none"/>
<path d="M142.121 281.229C142.121 281.229 175.157 247.694 191.687 244.212C209.771 240.403 261.725 227.959 274.491 222.736C286.008 218.023 315.551 205.544 331.887 200.252C347.59 195.166 367.248 195.823 387.969 195.226C394.072 195.05 384.713 220.677 383.451 220.796C366.571 222.386 359.426 222.504 348.84 227.092C338.255 231.68 303.917 237.251 292.412 243.605C280.279 250.307 276.632 262.607 258.048 262.914C229.726 263.381 210.961 268.788 200.356 276.164C200.356 276.164 185.86 290.533 170.007 300.271C166.458 302.451 142.121 281.229 142.121 281.229Z" fill="#efba6c" fill-rule="nonzero" opacity="1" stroke="none"/>
<path d="M107.951 104.599C107.951 104.599 125.786 87.5783 142.316 84.0961C160.4 80.2868 212.354 67.8432 225.12 62.6196C236.637 57.9069 257.859 44.687 274.195 39.3955C289.899 34.3091 302.292 39.7273 321.439 41.9742C327.503 42.6858 339.924 55.356 338.663 55.4748C321.783 57.0646 302.313 53.8325 290.779 54.0966C279.901 54.3457 251.687 70.9489 240.183 77.3036C228.05 84.0055 228.096 87.895 209.511 88.2017C181.189 88.6692 160.463 94.9733 151.72 97.2872C134.277 101.904 123.687 116.33 104.751 115.457C100.591 115.265 107.951 104.599 107.951 104.599Z" fill="#efba6c" fill-rule="nonzero" opacity="1" stroke="none"/>
<path d="M228.318 318.832C228.318 318.832 265.974 306.597 276.783 298.701C286.284 291.761 291.636 274.491 296.778 266.718C301.462 259.638 309.11 247.01 314.273 238.869C319.923 229.958 318.262 218.325 323.695 206.219C329.127 194.113 334.44 188.463 339.985 177.953C345.53 167.443 349.719 167.672 353.297 153.724C356.875 139.777 354.557 136.832 360.872 125.415C365.594 116.879 378.262 104.269 378.262 104.269C378.262 104.269 381.963 114.064 381.994 114.145C382.026 114.226 386.096 127.788 386.096 127.788L391.826 148.593C391.826 148.593 392.72 167.527 392.702 167.672C392.684 167.818 391.732 191.844 391.732 191.844L388.524 209.492L383.118 226.488L374.677 243.011L363.171 260.981C363.171 260.981 350.089 275.824 350.122 275.986C350.155 276.147 337.287 287.358 337.268 287.358C337.25 287.358 325.042 295.38 325.026 295.407C325.009 295.434 307.422 305.421 307.422 305.421C307.422 305.421 289.819 312.41 289.812 312.405C289.805 312.401 272.62 316.337 272.62 316.337L228.318 318.832Z" fill="#774f14" fill-opacity="0.728589" fill-rule="nonzero" opacity="1" stroke="none"/>
<path d="M93.1626 169.935C93.1626 87.1651 160.324 20.067 243.171 20.067C326.018 20.067 393.179 87.1651 393.179 169.935C393.179 252.704 326.018 319.803 243.171 319.803C160.324 319.803 93.1626 252.704 93.1626 169.935Z" fill="none" opacity="1" stroke="#282c34" stroke-linecap="round" stroke-linejoin="round" stroke-width="4"/>
</g>
<path d="M92.3868 171C91.4858 176.244 72.0102 186.67 63.6216 197.554C55.233 208.438 53.1903 243.338 65.6709 254.222C80.4296 267.092 120.056 274.312 141.903 276.263C163.732 278.213 199.846 278.985 226.071 275.732C251.631 272.561 287.261 267.379 308.611 257.603C329.96 247.827 368 225.317 378.269 218.572C389.137 211.433 403.489 201.733 411.797 188.523C419.16 176.816 422.748 163.051 422.258 147.413C421.768 131.776 421.513 120.062 412.496 111.057C403.478 102.052 378.95 104.255 378.903 104.206C378.853 104.154 365.237 81.4818 363.278 79.6651C361.319 77.8484 395.553 75.7349 408.126 78.1534C419.438 80.3291 434.457 86.8403 442.7 94.856C453.661 105.513 461.518 139.202 460.472 149.055C458.709 165.657 450.707 188.789 438.205 205.852C415.715 236.547 409.455 252.752 379.002 269.776C347.021 287.653 325.708 291.142 294.946 302.61C268.622 312.423 244.749 314.009 209.2 316.111C171.552 318.337 143.985 313.708 102.136 304.306C69.0687 296.876 34.6336 274.102 27.7369 260.418C20.6999 246.456 20.8349 206.027 33.143 182.479C46.8964 156.167 95.9806 138.963 96.115 138.558C96.2495 138.153 95.0271 155.632 92.3868 171Z" fill="#edd5b2" fill-rule="nonzero" opacity="0" stroke="#282c34" stroke-linecap="round" stroke-linejoin="round" stroke-width="4"/>
<path d="M95.1593 136.671C95.1107 136.666 5.05159 181.358 21.5309 229.766C35.5868 271.055 115.179 284.665 169.938 281.174C222.129 277.848 287.955 267.145 331.897 254.189C375.359 241.374 410.189 224.302 431.942 210.964C448.041 201.092 464.844 183.139 459.741 148.856C454.417 113.096 392.587 94.7123 376.924 96.6923" fill="none" opacity="1" stroke="#282c34" stroke-linecap="round" stroke-linejoin="round" stroke-width="8"/>
<g fill="#774f14" fill-opacity="0.728589" opacity="1" stroke="none">
<path clip-path="url(#TextBounds)" d="M163.963 158.289L177.108 158.289C179.699 158.289 181.792 158.641 183.387 159.344C184.982 160.047 186.301 161.056 187.342 162.371C188.384 163.686 189.139 165.216 189.608 166.961C190.077 168.706 190.311 170.555 190.311 172.508C190.311 175.568 189.963 177.941 189.266 179.627C188.57 181.313 187.603 182.726 186.366 183.866C185.129 185.005 183.801 185.763 182.381 186.141C180.441 186.662 178.683 186.922 177.108 186.922L163.963 186.922L163.963 158.289ZM172.811 164.774L172.811 180.418L174.979 180.418C176.828 180.418 178.143 180.213 178.924 179.803C179.706 179.393 180.318 178.677 180.76 177.655C181.203 176.632 181.424 174.976 181.424 172.684C181.424 169.65 180.93 167.573 179.94 166.453C178.95 165.334 177.31 164.774 175.018 164.774L172.811 164.774Z"/>
<path clip-path="url(#TextBounds)" d="M210.858 182.196L200.78 182.196L199.393 186.922L190.35 186.922L201.112 158.289L210.76 158.289L221.522 186.922L212.264 186.922L210.858 182.196ZM209.002 176.004L205.838 165.711L202.694 176.004L209.002 176.004Z"/>
<path clip-path="url(#TextBounds)" d="M224.413 158.289L232.674 158.289L243.456 174.129L243.456 158.289L251.795 158.289L251.795 186.922L243.456 186.922L232.733 171.199L232.733 186.922L224.413 186.922L224.413 158.289Z"/>
<path clip-path="url(#TextBounds)" d="M258.026 158.289L266.893 158.289L266.893 186.922L258.026 186.922L258.026 158.289Z"/>
<path clip-path="url(#TextBounds)" d="M273.221 158.289L296.932 158.289L296.932 164.403L282.088 164.403L282.088 168.953L295.858 168.953L295.858 174.793L282.088 174.793L282.088 180.438L297.362 180.438L297.362 186.922L273.221 186.922L273.221 158.289Z"/>
<path clip-path="url(#TextBounds)" d="M302.127 158.289L310.975 158.289L310.975 179.871L324.784 179.871L324.784 186.922L302.127 186.922L302.127 158.289Z"/>
</g>
</g>
</svg>
